<svg xmlns="http://www.w3.org/2000/svg" xmlns:xlink="http://www.w3.org/1999/xlink" contentStyleType="text/css" data-diagram-type="CLASS" height="363px" preserveAspectRatio="none" style="width:224px;height:363px;background:#F9F9F9;" version="1.1" viewBox="0 0 224 363" width="224px" zoomAndPan="magnify"><defs/><g><rect fill="#F9F9F9" height="363" style="stroke:none;stroke-width:1;" width="224" x="0" y="0"/><!--class ExcelFillColorToGimpPalette--><g class="entity" data-entity="ExcelFillColorToGimpPalette" data-source-line="4" data-uid="ent0002" id="entity_ExcelFillColorToGimpPalette"><rect fill="#F1F1F1" height="118.4375" rx="3.5" ry="3.5" style="stroke:#181818;stroke-width:0.5;" width="210.9443" x="7" y="7"/><ellipse cx="22" cy="23" fill="#ADD1B2" rx="11" ry="11" style="stroke:#181818;stroke-width:1;"/><path d="M24.7656,18.875 Q24.9219,18.6563 25.1094,18.5469 Q25.2969,18.4375 25.5156,18.4375 Q25.8906,18.4375 26.125,18.7031 Q26.3594,18.9531 26.3594,19.5625 L26.3594,21.0156 Q26.3594,21.625 26.125,21.8906 Q25.8906,22.1563 25.5156,22.1563 Q25.1719,22.1563 24.9688,21.9531 Q24.7656,21.7656 24.6563,21.25 Q24.6094,20.8906 24.4219,20.7031 Q24.0938,20.3281 23.4844,20.1094 Q22.875,19.8906 22.25,19.8906 Q21.4844,19.8906 20.8438,20.2188 Q20.2188,20.5469 19.7188,21.2969 Q19.2344,22.0469 19.2344,23.0781 L19.2344,24.1719 Q19.2344,25.4063 20.125,26.2344 Q21.0156,27.0469 22.6094,27.0469 Q23.5469,27.0469 24.2031,26.7969 Q24.5938,26.6406 25.0156,26.2031 Q25.2813,25.9375 25.4219,25.8594 Q25.5781,25.7813 25.7813,25.7813 Q26.1094,25.7813 26.3594,26.0469 Q26.625,26.2969 26.625,26.6406 Q26.625,26.9844 26.2813,27.3906 Q25.7813,27.9688 24.9844,28.2969 Q23.9063,28.75 22.6094,28.75 Q21.0938,28.75 19.8906,28.125 Q18.9063,27.625 18.2188,26.5625 Q17.5313,25.4844 17.5313,24.2031 L17.5313,23.0469 Q17.5313,21.7188 18.1406,20.5781 Q18.7656,19.4219 19.8594,18.8125 Q20.9531,18.1875 22.1875,18.1875 Q22.9219,18.1875 23.5625,18.3594 Q24.2188,18.5156 24.7656,18.875 Z " fill="#000000"/><text fill="#000000" font-family="sans-serif" font-size="14" lengthAdjust="spacing" textLength="178.9443" x="36" y="28.7285">ExcelFillColorToGimpPalette</text><line style="stroke:#181818;stroke-width:0.5;" x1="8" x2="216.9443" y1="39" y2="39"/><rect fill="none" height="6" style="stroke:#C82930;stroke-width:1;" width="6" x="15" y="50.3047"/><text fill="#000000" font-family="sans-serif" font-size="14" lengthAdjust="spacing" textLength="99.5928" x="27" y="57.5332">fileName: String</text><rect fill="none" height="6" style="stroke:#C82930;stroke-width:1;" width="6" x="15" y="67.9141"/><text fill="#000000" font-family="sans-serif" font-size="14" lengthAdjust="spacing" textLength="128.3926" x="27" y="75.1426">excelFilePath: String</text><rect fill="none" height="6" style="stroke:#C82930;stroke-width:1;" width="6" x="15" y="85.5234"/><text fill="#000000" font-family="sans-serif" font-size="14" lengthAdjust="spacing" textLength="147.082" x="27" y="92.752">gimpPalettePath: String</text><line style="stroke:#181818;stroke-width:0.5;" x1="8" x2="216.9443" y1="99.8281" y2="99.8281"/><ellipse cx="18" cy="114.1328" fill="#84BE84" rx="3" ry="3" style="stroke:#038048;stroke-width:1;"/><text fill="#000000" font-family="sans-serif" font-size="14" lengthAdjust="spacing" textLength="84.0205" x="27" y="118.3613">main(String[])</text></g><!--class Color--><g class="entity" data-entity="Color" data-source-line="11" data-uid="ent0003" id="entity_Color"><rect fill="#F1F1F1" height="171.2656" rx="3.5" ry="3.5" style="stroke:#181818;stroke-width:0.5;" width="128.6963" x="48" y="185"/><ellipse cx="91.4585" cy="201" fill="#ADD1B2" rx="11" ry="11" style="stroke:#181818;stroke-width:1;"/><path d="M94.2242,196.875 Q94.3804,196.6563 94.5679,196.5469 Q94.7554,196.4375 94.9742,196.4375 Q95.3492,196.4375 95.5835,196.7031 Q95.8179,196.9531 95.8179,197.5625 L95.8179,199.0156 Q95.8179,199.625 95.5835,199.8906 Q95.3492,200.1563 94.9742,200.1563 Q94.6304,200.1563 94.4273,199.9531 Q94.2242,199.7656 94.1148,199.25 Q94.0679,198.8906 93.8804,198.7031 Q93.5523,198.3281 92.9429,198.1094 Q92.3335,197.8906 91.7085,197.8906 Q90.9429,197.8906 90.3023,198.2188 Q89.6773,198.5469 89.1773,199.2969 Q88.6929,200.0469 88.6929,201.0781 L88.6929,202.1719 Q88.6929,203.4063 89.5835,204.2344 Q90.4742,205.0469 92.0679,205.0469 Q93.0054,205.0469 93.6617,204.7969 Q94.0523,204.6406 94.4742,204.2031 Q94.7398,203.9375 94.8804,203.8594 Q95.0367,203.7813 95.2398,203.7813 Q95.5679,203.7813 95.8179,204.0469 Q96.0835,204.2969 96.0835,204.6406 Q96.0835,204.9844 95.7398,205.3906 Q95.2398,205.9688 94.4429,206.2969 Q93.3648,206.75 92.0679,206.75 Q90.5523,206.75 89.3492,206.125 Q88.3648,205.625 87.6773,204.5625 Q86.9898,203.4844 86.9898,202.2031 L86.9898,201.0469 Q86.9898,199.7188 87.5992,198.5781 Q88.2242,197.4219 89.3179,196.8125 Q90.4117,196.1875 91.646,196.1875 Q92.3804,196.1875 93.021,196.3594 Q93.6773,196.5156 94.2242,196.875 Z " fill="#000000"/><text fill="#000000" font-family="sans-serif" font-size="14" lengthAdjust="spacing" textLength="33.4551" x="111.7827" y="206.7285">Color</text><line style="stroke:#181818;stroke-width:0.5;" x1="49" x2="175.6963" y1="217" y2="217"/><ellipse cx="59" cy="231.3047" fill="none" rx="3" ry="3" style="stroke:#038048;stroke-width:1;"/><text fill="#000000" font-family="sans-serif" font-size="14" lengthAdjust="spacing" textLength="42.7998" x="68" y="235.5332">red: int</text><ellipse cx="59" cy="248.9141" fill="none" rx="3" ry="3" style="stroke:#038048;stroke-width:1;"/><text fill="#000000" font-family="sans-serif" font-size="14" lengthAdjust="spacing" textLength="58.3721" x="68" y="253.1426">green: int</text><ellipse cx="59" cy="266.5234" fill="none" rx="3" ry="3" style="stroke:#038048;stroke-width:1;"/><text fill="#000000" font-family="sans-serif" font-size="14" lengthAdjust="spacing" textLength="49.0342" x="68" y="270.752">blue: int</text><line style="stroke:#181818;stroke-width:0.5;" x1="49" x2="175.6963" y1="277.8281" y2="277.8281"/><ellipse cx="59" cy="292.1328" fill="#84BE84" rx="3" ry="3" style="stroke:#038048;stroke-width:1;"/><text fill="#000000" font-family="sans-serif" font-size="14" lengthAdjust="spacing" textLength="102.6963" x="68" y="296.3613">Color(int, int, int)</text><rect fill="#F24D5C" height="6" style="stroke:#C82930;stroke-width:1;" width="6" x="56" y="306.7422"/><text fill="#000000" font-family="sans-serif" font-size="14" lengthAdjust="spacing" textLength="77.0342" x="68" y="313.9707">getRed(): int</text><rect fill="#F24D5C" height="6" style="stroke:#C82930;stroke-width:1;" width="6" x="56" y="324.3516"/><text fill="#000000" font-family="sans-serif" font-size="14" lengthAdjust="spacing" textLength="90.2617" x="68" y="331.5801">getGreen(): int</text><rect fill="#F24D5C" height="6" style="stroke:#C82930;stroke-width:1;" width="6" x="56" y="341.9609"/><text fill="#000000" font-family="sans-serif" font-size="14" lengthAdjust="spacing" textLength="79.3721" x="68" y="349.1895">getBlue(): int</text></g><!--reverse link ExcelFillColorToGimpPalette to Color--><g class="link" data-entity-1="ExcelFillColorToGimpPalette" data-entity-2="Color" data-source-line="21" data-uid="lnk4" id="link_ExcelFillColorToGimpPalette_Color"><path codeLine="21" d="M112.5,137.03 C112.5,155.61 112.5,164.58 112.5,184.67" fill="none" id="ExcelFillColorToGimpPalette-backto-Color" style="stroke:#191919;stroke-width:1;"/><polygon fill="#191919" points="112.5,125.03,108.5,131.03,112.5,137.03,116.5,131.03,112.5,125.03" style="stroke:#191919;stroke-width:1;"/><text fill="#000000" font-family="sans-serif" font-size="13" lengthAdjust="spacing" textLength="7.23" x="105.0699" y="147.1078">1</text></g><!--SRC=[VP0_3u8m4CNtVegJ2LG6LqQDi1cYRiQXmbcQN8ifDJ4nVdVBdmPmi4EJztljkvTRs0eLWkAcOQmWtZImVnL8gIJQrLIRSvr9zSWveRK8RmRkh1INEZnP8xMuNAEEnNT9UE0A4-YDdk8GXZctrTmIO-xC_FWYtNm_qc2PWDIsLy8Wwec-qHCdiliPEha6Vmqj1TeZbc4qFcvHriRzmgtBzCnr-hUMO1F0Cew7nkmB]--></g></svg>