<?plantuml 1.2026.2?><svg xmlns="http://www.w3.org/2000/svg" xmlns:xlink="http://www.w3.org/1999/xlink" contentStyleType="text/css" data-diagram-type="CLASS" height="174px" preserveAspectRatio="none" style="width:732px;height:174px;background:#F9F9F9;" version="1.1" viewBox="0 0 732 174" width="732px" zoomAndPan="magnify"><defs/><g><rect fill="#F9F9F9" height="174" style="stroke:none;stroke-width:1;" width="732" x="0" y="0"/><!--class PatternToPageMap--><g class="entity" data-qualified-name="PatternToPageMap" data-source-line="6" id="ent0002"><rect fill="#F1F1F1" height="153.6563" rx="3.5" ry="3.5" style="stroke:#181818;stroke-width:0.5;" width="711.9453" x="7" y="7"/><ellipse cx="298.0195" cy="23" fill="#ADD1B2" rx="11" ry="11" style="stroke:#181818;stroke-width:1;"/><path d="M300.7852,18.875 Q300.9414,18.6563 301.1289,18.5469 Q301.3164,18.4375 301.5352,18.4375 Q301.9102,18.4375 302.1445,18.7031 Q302.3789,18.9531 302.3789,19.5625 L302.3789,21.0156 Q302.3789,21.625 302.1445,21.8906 Q301.9102,22.1563 301.5352,22.1563 Q301.1914,22.1563 300.9883,21.9531 Q300.7852,21.7656 300.6758,21.25 Q300.6289,20.8906 300.4414,20.7031 Q300.1133,20.3281 299.5039,20.1094 Q298.8945,19.8906 298.2695,19.8906 Q297.5039,19.8906 296.8633,20.2188 Q296.2383,20.5469 295.7383,21.2969 Q295.2539,22.0469 295.2539,23.0781 L295.2539,24.1719 Q295.2539,25.4063 296.1445,26.2344 Q297.0352,27.0469 298.6289,27.0469 Q299.5664,27.0469 300.2227,26.7969 Q300.6133,26.6406 301.0352,26.2031 Q301.3008,25.9375 301.4414,25.8594 Q301.5977,25.7813 301.8008,25.7813 Q302.1289,25.7813 302.3789,26.0469 Q302.6445,26.2969 302.6445,26.6406 Q302.6445,26.9844 302.3008,27.3906 Q301.8008,27.9688 301.0039,28.2969 Q299.9258,28.75 298.6289,28.75 Q297.1133,28.75 295.9102,28.125 Q294.9258,27.625 294.2383,26.5625 Q293.5508,25.4844 293.5508,24.2031 L293.5508,23.0469 Q293.5508,21.7188 294.1602,20.5781 Q294.7852,19.4219 295.8789,18.8125 Q296.9727,18.1875 298.207,18.1875 Q298.9414,18.1875 299.582,18.3594 Q300.2383,18.5156 300.7852,18.875 Z " fill="#000000"/><text fill="#000000" font-family="sans-serif" font-size="14" lengthAdjust="spacing" textLength="121.4063" x="318.5195" y="28.7285">PatternToPageMap</text><line style="stroke:#181818;stroke-width:0.5;" x1="8" x2="717.9453" y1="39" y2="39"/><text fill="#000000" font-family="sans-serif" font-size="14" lengthAdjust="spacing" textLength="105.8203" x="13" y="57.5332">-patternRows: int</text><text fill="#000000" font-family="sans-serif" font-size="14" lengthAdjust="spacing" textLength="126.0547" x="13" y="75.1426">-patternColumns: int</text><text fill="#000000" font-family="sans-serif" font-size="14" lengthAdjust="spacing" textLength="180.5234" x="13" y="92.752">-colorMap: Map&lt;String, int[]&gt;</text><line style="stroke:#181818;stroke-width:0.5;" x1="8" x2="717.9453" y1="99.8281" y2="99.8281"/><text fill="#000000" font-family="sans-serif" font-size="14" lengthAdjust="spacing" textLength="559.877" x="13" y="118.3613">+convertExcelToPageMap(excelFilePath: String, rowsPerPage: int, colsPerPage: int): void</text><text fill="#000000" font-family="sans-serif" font-size="14" lengthAdjust="spacing" textLength="381.6914" x="13" y="135.9707">+readLegendColors(workbook: Workbook): Map&lt;String, int[]&gt;</text><text fill="#000000" font-family="sans-serif" font-size="14" lengthAdjust="spacing" textLength="699.9453" x="13" y="153.5801">+addSelectiveBorders(sheet: Sheet, startRow: int, endRow: int, startCol: int, endCol: int, borderColor: short): void</text></g><?plantuml-src VL71IiGm4BttAyRRBgxWkOYWYuAWKApWGJnaczasDCsKoMnN5F_TIQrRzx8v99bvB-yz9cVIO8VG6OvPR5te3PiEAczYl15Xjza9FbGKIlU9SFcF4XjZQUz23LlZ8sOUjm92mAvk1AnZhCHHoB9H2meZWXnUg30rFfd-AmDT5z3_zfzf7tDmGOxRQ_AxBXmX5NbY5SX1jwjI8uPwbV2tz-kHSgwKC23BtKU5_c2um5JUEuyQfSdXxoMhSu6SMAFDAZaSTPOv3EJi9Cvex2FM6Emw9OcBFN6x8MfpU9rkonFPZBKb-ZIR0M-9BQf2R1154wLZ1L4CYyvZIgD6Sp5YwZjZSx4PrSPGkVuEyI7uzmy0?></g></svg>