<svg xmlns="http://www.w3.org/2000/svg" xmlns:xlink="http://www.w3.org/1999/xlink" contentStyleType="text/css" data-diagram-type="CLASS" height="315px" preserveAspectRatio="none" style="width:588px;height:315px;background:#F9F9F9;" version="1.1" viewBox="0 0 588 315" width="588px" zoomAndPan="magnify"><defs/><g><rect fill="#F9F9F9" height="315" style="stroke:none;stroke-width:1;" width="588" x="0" y="0"/><!--class WordChartGenerator--><g class="entity" data-entity="WordChartGenerator" data-source-line="4" data-uid="ent0002" id="entity_WordChartGenerator"><rect fill="#F1F1F1" height="294.5313" rx="3.5" ry="3.5" style="stroke:#181818;stroke-width:0.5;" width="567.5977" x="7" y="7"/><ellipse cx="221.1904" cy="23" fill="#ADD1B2" rx="11" ry="11" style="stroke:#181818;stroke-width:1;"/><path d="M223.9561,18.875 Q224.1123,18.6563 224.2998,18.5469 Q224.4873,18.4375 224.7061,18.4375 Q225.0811,18.4375 225.3154,18.7031 Q225.5498,18.9531 225.5498,19.5625 L225.5498,21.0156 Q225.5498,21.625 225.3154,21.8906 Q225.0811,22.1563 224.7061,22.1563 Q224.3623,22.1563 224.1592,21.9531 Q223.9561,21.7656 223.8467,21.25 Q223.7998,20.8906 223.6123,20.7031 Q223.2842,20.3281 222.6748,20.1094 Q222.0654,19.8906 221.4404,19.8906 Q220.6748,19.8906 220.0342,20.2188 Q219.4092,20.5469 218.9092,21.2969 Q218.4248,22.0469 218.4248,23.0781 L218.4248,24.1719 Q218.4248,25.4063 219.3154,26.2344 Q220.2061,27.0469 221.7998,27.0469 Q222.7373,27.0469 223.3936,26.7969 Q223.7842,26.6406 224.2061,26.2031 Q224.4717,25.9375 224.6123,25.8594 Q224.7686,25.7813 224.9717,25.7813 Q225.2998,25.7813 225.5498,26.0469 Q225.8154,26.2969 225.8154,26.6406 Q225.8154,26.9844 225.4717,27.3906 Q224.9717,27.9688 224.1748,28.2969 Q223.0967,28.75 221.7998,28.75 Q220.2842,28.75 219.0811,28.125 Q218.0967,27.625 217.4092,26.5625 Q216.7217,25.4844 216.7217,24.2031 L216.7217,23.0469 Q216.7217,21.7188 217.3311,20.5781 Q217.9561,19.4219 219.0498,18.8125 Q220.1436,18.1875 221.3779,18.1875 Q222.1123,18.1875 222.7529,18.3594 Q223.4092,18.5156 223.9561,18.875 Z " fill="#000000"/><text fill="#000000" font-family="sans-serif" font-size="14" lengthAdjust="spacing" textLength="130.7168" x="241.6904" y="28.7285">WordChartGenerator</text><line style="stroke:#181818;stroke-width:0.5;" x1="8" x2="573.5977" y1="39" y2="39"/><rect fill="none" height="6" style="stroke:#C82930;stroke-width:1;" width="6" x="15" y="50.3047"/><text fill="#000000" font-family="sans-serif" font-size="14" lengthAdjust="spacing" textLength="40.4688" x="27" y="57.5332">Config</text><rect fill="none" height="6" style="stroke:#C82930;stroke-width:1;" width="6" x="15" y="67.9141"/><text fill="#000000" font-family="sans-serif" font-size="14" lengthAdjust="spacing" textLength="99.5859" x="27" y="75.1426">XSSFWorkbook</text><rect fill="none" height="6" style="stroke:#C82930;stroke-width:1;" width="6" x="15" y="85.5234"/><text fill="#000000" font-family="sans-serif" font-size="14" lengthAdjust="spacing" textLength="73.1514" x="27" y="92.752">XSSFSheet</text><rect fill="none" height="6" style="stroke:#C82930;stroke-width:1;" width="6" x="15" y="103.1328"/><text fill="#000000" font-family="sans-serif" font-size="14" lengthAdjust="spacing" textLength="91.8066" x="27" y="110.3613">XSSFCellStyle</text><rect fill="none" height="6" style="stroke:#C82930;stroke-width:1;" width="6" x="15" y="120.7422"/><text fill="#000000" font-family="sans-serif" font-size="14" lengthAdjust="spacing" textLength="28.0137" x="27" y="127.9707">Font</text><rect fill="none" height="6" style="stroke:#C82930;stroke-width:1;" width="6" x="15" y="138.3516"/><text fill="#000000" font-family="sans-serif" font-size="14" lengthAdjust="spacing" textLength="28.0068" x="27" y="145.5801">Row</text><rect fill="none" height="6" style="stroke:#C82930;stroke-width:1;" width="6" x="15" y="155.9609"/><text fill="#000000" font-family="sans-serif" font-size="14" lengthAdjust="spacing" textLength="24.1172" x="27" y="163.1895">Cell</text><line style="stroke:#181818;stroke-width:0.5;" x1="8" x2="573.5977" y1="170.2656" y2="170.2656"/><ellipse cx="18" cy="184.5703" fill="#84BE84" rx="3" ry="3" style="stroke:#038048;stroke-width:1;"/><text fill="#000000" font-family="sans-serif" font-size="14" lengthAdjust="spacing" textLength="181.2822" x="27" y="188.7988">static void main(String[] args)</text><ellipse cx="18" cy="202.1797" fill="#84BE84" rx="3" ry="3" style="stroke:#038048;stroke-width:1;"/><text fill="#000000" font-family="sans-serif" font-size="14" lengthAdjust="spacing" textLength="340.792" x="27" y="206.4082">static void generateWordChartFromFile(String filePath)</text><rect fill="#F24D5C" height="6" style="stroke:#C82930;stroke-width:1;" width="6" x="15" y="216.7891"/><text fill="#000000" font-family="sans-serif" font-size="14" lengthAdjust="spacing" textLength="246.668" x="27" y="224.0176">ZipSecureFile.setMinInflateRatio(0.003)</text><ellipse cx="18" cy="237.3984" fill="#84BE84" rx="3" ry="3" style="stroke:#038048;stroke-width:1;"/><text fill="#000000" font-family="sans-serif" font-size="14" lengthAdjust="spacing" textLength="541.5977" x="27" y="241.627">static String[][] readSchemaFromSheet(Sheet sheet, int patternWidth, int patternHeight)</text><ellipse cx="18" cy="255.0078" fill="#84BE84" rx="3" ry="3" style="stroke:#038048;stroke-width:1;"/><text fill="#000000" font-family="sans-serif" font-size="14" lengthAdjust="spacing" textLength="274.6611" x="27" y="259.2363">static String generateRowChart(String[] row)</text><ellipse cx="18" cy="272.6172" fill="#84BE84" rx="3" ry="3" style="stroke:#038048;stroke-width:1;"/><text fill="#000000" font-family="sans-serif" font-size="14" lengthAdjust="spacing" textLength="323.7021" x="27" y="276.8457">setBorderedAndCenteredStyle(XSSFCellStyle style)</text><ellipse cx="18" cy="290.2266" fill="#84BE84" rx="3" ry="3" style="stroke:#038048;stroke-width:1;"/><text fill="#000000" font-family="sans-serif" font-size="14" lengthAdjust="spacing" textLength="289.4609" x="27" y="294.4551">setBorderedAndLeftStyle(XSSFCellStyle style)</text></g><!--SRC=[VPB1IiD048RlUOhnbg2MWa-WWQYW8Dr3HV6mPYV9qErkcHqj8hwxazZK5a9p67Pdv_zs_v-SIOThXBNbb7bi12G2Kzi9E6AiXMB8ijhRb60PsPMTPRd5W6mbCdndeDyv9B52DNn6SegYa1jX2kth6rXkKm4JO-qV1FVKYkEw8eyxBJIwVhBI5OFu4bveOx3-OEo7PWdbaS9zQBmo5egD-Nmsdr-DqsKC3RMxpRCnbTwpUeznTT0o7Q8Sx4lqtiYNnrslYc4yNiJj2DQXOpkZLtNBQ9sfDL7Rkndu-L0XzVK2A0Xih0XoM9AJxgXpXttmnHHz7vS-P4ZhFs6Esxq4vKRZH4Pt7Lo9GVhbO2a_CgXmhTEo1_qBJaX-iby0]--></g></svg>